<?xml version="1.0" encoding="us-ascii" standalone="no"?><svg xmlns="http://www.w3.org/2000/svg" xmlns:xlink="http://www.w3.org/1999/xlink" contentStyleType="text/css" height="656px" preserveAspectRatio="none" style="width:782px;height:656px;background:#FFFFFF;" version="1.1" viewBox="0 0 782 656" width="782px" zoomAndPan="magnify"><defs/><g><rect fill="none" height="139.7578" style="stroke:#000000;stroke-width:1.5;" width="431.5" x="10" y="99.6094"/><rect fill="none" height="304.5156" style="stroke:#000000;stroke-width:1.5;" width="766.5" x="10" y="253.3672"/><line style="stroke:#181818;stroke-width:0.5;stroke-dasharray:5.0,5.0;" x1="37" x2="37" y1="82.6094" y2="574.8828"/><line style="stroke:#181818;stroke-width:0.5;stroke-dasharray:5.0,5.0;" x1="187.5" x2="187.5" y1="82.6094" y2="574.8828"/><line style="stroke:#181818;stroke-width:0.5;stroke-dasharray:5.0,5.0;" x1="384.5" x2="384.5" y1="82.6094" y2="574.8828"/><line style="stroke:#181818;stroke-width:0.5;stroke-dasharray:5.0,5.0;" x1="496.5" x2="496.5" y1="82.6094" y2="574.8828"/><line style="stroke:#181818;stroke-width:0.5;stroke-dasharray:5.0,5.0;" x1="633.5" x2="633.5" y1="82.6094" y2="574.8828"/><text fill="#000000" font-family="sans-serif" font-size="14" lengthAdjust="spacing" textLength="29" x="20" y="79.5332">User</text><ellipse cx="37.5" cy="13.5" fill="#E2E2F0" rx="8" ry="8" style="stroke:#181818;stroke-width:0.5;"/><path d="M37.5,21.5 L37.5,48.5 M24.5,29.5 L50.5,29.5 M37.5,48.5 L24.5,63.5 M37.5,48.5 L50.5,63.5 " fill="none" style="stroke:#181818;stroke-width:0.5;"/><text fill="#000000" font-family="sans-serif" font-size="14" lengthAdjust="spacing" textLength="29" x="20" y="588.416">User</text><ellipse cx="37.5" cy="599.9922" fill="#E2E2F0" rx="8" ry="8" style="stroke:#181818;stroke-width:0.5;"/><path d="M37.5,607.9922 L37.5,634.9922 M24.5,615.9922 L50.5,615.9922 M37.5,634.9922 L24.5,649.9922 M37.5,634.9922 L50.5,649.9922 " fill="none" style="stroke:#181818;stroke-width:0.5;"/><rect fill="#E2E2F0" height="31.6094" rx="2.5" ry="2.5" style="stroke:#181818;stroke-width:0.5;" width="98" x="138.5" y="50"/><text fill="#000000" font-family="sans-serif" font-size="14" lengthAdjust="spacing" textLength="84" x="145.5" y="71.5332">UserInterface</text><rect fill="#E2E2F0" height="31.6094" rx="2.5" ry="2.5" style="stroke:#181818;stroke-width:0.5;" width="98" x="138.5" y="573.8828"/><text fill="#000000" font-family="sans-serif" font-size="14" lengthAdjust="spacing" textLength="84" x="145.5" y="595.416">UserInterface</text><rect fill="#E2E2F0" height="31.6094" rx="2.5" ry="2.5" style="stroke:#181818;stroke-width:0.5;" width="94" x="337.5" y="50"/><text fill="#000000" font-family="sans-serif" font-size="14" lengthAdjust="spacing" textLength="80" x="344.5" y="71.5332">DataStorage</text><rect fill="#E2E2F0" height="31.6094" rx="2.5" ry="2.5" style="stroke:#181818;stroke-width:0.5;" width="94" x="337.5" y="573.8828"/><text fill="#000000" font-family="sans-serif" font-size="14" lengthAdjust="spacing" textLength="80" x="344.5" y="595.416">DataStorage</text><rect fill="#E2E2F0" height="31.6094" rx="2.5" ry="2.5" style="stroke:#181818;stroke-width:0.5;" width="111" x="441.5" y="50"/><text fill="#000000" font-family="sans-serif" font-size="14" lengthAdjust="spacing" textLength="97" x="448.5" y="71.5332">Communication</text><rect fill="#E2E2F0" height="31.6094" rx="2.5" ry="2.5" style="stroke:#181818;stroke-width:0.5;" width="111" x="441.5" y="573.8828"/><text fill="#000000" font-family="sans-serif" font-size="14" lengthAdjust="spacing" textLength="97" x="448.5" y="595.416">Communication</text><rect fill="#E2E2F0" height="31.6094" rx="2.5" ry="2.5" style="stroke:#181818;stroke-width:0.5;" width="142" x="562.5" y="50"/><text fill="#000000" font-family="sans-serif" font-size="14" lengthAdjust="spacing" textLength="128" x="569.5" y="71.5332">MonitoringController</text><rect fill="#E2E2F0" height="31.6094" rx="2.5" ry="2.5" style="stroke:#181818;stroke-width:0.5;" width="142" x="562.5" y="573.8828"/><text fill="#000000" font-family="sans-serif" font-size="14" lengthAdjust="spacing" textLength="128" x="569.5" y="595.416">MonitoringController</text><path d="M10,99.6094 L157,99.6094 L157,107.9609 L147,117.9609 L10,117.9609 L10,99.6094 " fill="#EEEEEE" style="stroke:#000000;stroke-width:1.5;"/><rect fill="none" height="139.7578" style="stroke:#000000;stroke-width:1.5;" width="431.5" x="10" y="99.6094"/><text fill="#000000" font-family="sans-serif" font-size="13" font-weight="bold" lengthAdjust="spacing" textLength="102" x="25" y="114.1045">View Plant Data</text><polygon fill="#181818" points="175.5,136.3125,185.5,140.3125,175.5,144.3125,179.5,140.3125" style="stroke:#181818;stroke-width:1.0;"/><line style="stroke:#181818;stroke-width:1.0;" x1="37.5" x2="181.5" y1="140.3125" y2="140.3125"/><text fill="#000000" font-family="sans-serif" font-size="13" lengthAdjust="spacing" textLength="109" x="44.5" y="135.4561">Request plant data</text><polygon fill="#181818" points="372.5,166.6641,382.5,170.6641,372.5,174.6641,376.5,170.6641" style="stroke:#181818;stroke-width:1.0;"/><line style="stroke:#181818;stroke-width:1.0;" x1="187.5" x2="378.5" y1="170.6641" y2="170.6641"/><text fill="#000000" font-family="sans-serif" font-size="13" lengthAdjust="spacing" textLength="124" x="194.5" y="165.8076">GetPlantData(plantId)</text><polygon fill="#181818" points="198.5,197.0156,188.5,201.0156,198.5,205.0156,194.5,201.0156" style="stroke:#181818;stroke-width:1.0;"/><line style="stroke:#181818;stroke-width:1.0;stroke-dasharray:2.0,2.0;" x1="192.5" x2="383.5" y1="201.0156" y2="201.0156"/><text fill="#000000" font-family="sans-serif" font-size="13" lengthAdjust="spacing" textLength="152" x="204.5" y="196.1592">Current and historical data</text><polygon fill="#181818" points="48.5,227.3672,38.5,231.3672,48.5,235.3672,44.5,231.3672" style="stroke:#181818;stroke-width:1.0;"/><line style="stroke:#181818;stroke-width:1.0;stroke-dasharray:2.0,2.0;" x1="42.5" x2="186.5" y1="231.3672" y2="231.3672"/><text fill="#000000" font-family="sans-serif" font-size="13" lengthAdjust="spacing" textLength="104" x="54.5" y="226.5107">Display plant data</text><path d="M10,253.3672 L155,253.3672 L155,261.7188 L145,271.7188 L10,271.7188 L10,253.3672 " fill="#EEEEEE" style="stroke:#000000;stroke-width:1.5;"/><rect fill="none" height="304.5156" style="stroke:#000000;stroke-width:1.5;" width="766.5" x="10" y="253.3672"/><text fill="#000000" font-family="sans-serif" font-size="13" font-weight="bold" lengthAdjust="spacing" textLength="100" x="25" y="267.8623">Update Settings</text><polygon fill="#181818" points="175.5,290.0703,185.5,294.0703,175.5,298.0703,179.5,294.0703" style="stroke:#181818;stroke-width:1.0;"/><line style="stroke:#181818;stroke-width:1.0;" x1="37.5" x2="181.5" y1="294.0703" y2="294.0703"/><text fill="#000000" font-family="sans-serif" font-size="13" lengthAdjust="spacing" textLength="126" x="44.5" y="289.2139">Change plant settings</text><polygon fill="#181818" points="372.5,320.4219,382.5,324.4219,372.5,328.4219,376.5,324.4219" style="stroke:#181818;stroke-width:1.0;"/><line style="stroke:#181818;stroke-width:1.0;" x1="187.5" x2="378.5" y1="324.4219" y2="324.4219"/><text fill="#000000" font-family="sans-serif" font-size="13" lengthAdjust="spacing" textLength="173" x="194.5" y="319.5654">UpdatePlantSettings(settings)</text><polygon fill="#181818" points="198.5,350.7734,188.5,354.7734,198.5,358.7734,194.5,354.7734" style="stroke:#181818;stroke-width:1.0;"/><line style="stroke:#181818;stroke-width:1.0;stroke-dasharray:2.0,2.0;" x1="192.5" x2="383.5" y1="354.7734" y2="354.7734"/><text fill="#000000" font-family="sans-serif" font-size="13" lengthAdjust="spacing" textLength="98" x="204.5" y="349.917">Settings updated</text><polygon fill="#181818" points="485,381.125,495,385.125,485,389.125,489,385.125" style="stroke:#181818;stroke-width:1.0;"/><line style="stroke:#181818;stroke-width:1.0;" x1="187.5" x2="491" y1="385.125" y2="385.125"/><text fill="#000000" font-family="sans-serif" font-size="13" lengthAdjust="spacing" textLength="157" x="194.5" y="380.2686">Send updated configuration</text><polygon fill="#181818" points="621.5,411.4766,631.5,415.4766,621.5,419.4766,625.5,415.4766" style="stroke:#181818;stroke-width:1.0;"/><line style="stroke:#181818;stroke-width:1.0;" x1="497" x2="627.5" y1="415.4766" y2="415.4766"/><text fill="#000000" font-family="sans-serif" font-size="13" lengthAdjust="spacing" textLength="89" x="504" y="410.6201">ReceiveConfig()</text><line style="stroke:#181818;stroke-width:1.0;" x1="633.5" x2="675.5" y1="445.8281" y2="445.8281"/><line style="stroke:#181818;stroke-width:1.0;" x1="675.5" x2="675.5" y1="445.8281" y2="458.8281"/><line style="stroke:#181818;stroke-width:1.0;" x1="634.5" x2="675.5" y1="458.8281" y2="458.8281"/><polygon fill="#181818" points="644.5,454.8281,634.5,458.8281,644.5,462.8281,640.5,458.8281" style="stroke:#181818;stroke-width:1.0;"/><text fill="#000000" font-family="sans-serif" font-size="13" lengthAdjust="spacing" textLength="124" x="640.5" y="440.9717">UpdateConfiguration()</text><polygon fill="#181818" points="508,485.1797,498,489.1797,508,493.1797,504,489.1797" style="stroke:#181818;stroke-width:1.0;"/><line style="stroke:#181818;stroke-width:1.0;stroke-dasharray:2.0,2.0;" x1="502" x2="632.5" y1="489.1797" y2="489.1797"/><text fill="#000000" font-family="sans-serif" font-size="13" lengthAdjust="spacing" textLength="17" x="514" y="484.3232">Ok</text><polygon fill="#181818" points="198.5,515.5313,188.5,519.5313,198.5,523.5313,194.5,519.5313" style="stroke:#181818;stroke-width:1.0;"/><line style="stroke:#181818;stroke-width:1.0;stroke-dasharray:2.0,2.0;" x1="192.5" x2="496" y1="519.5313" y2="519.5313"/><text fill="#000000" font-family="sans-serif" font-size="13" lengthAdjust="spacing" textLength="17" x="204.5" y="514.6748">Ok</text><polygon fill="#181818" points="48.5,545.8828,38.5,549.8828,48.5,553.8828,44.5,549.8828" style="stroke:#181818;stroke-width:1.0;"/><line style="stroke:#181818;stroke-width:1.0;stroke-dasharray:2.0,2.0;" x1="42.5" x2="186.5" y1="549.8828" y2="549.8828"/><text fill="#000000" font-family="sans-serif" font-size="13" lengthAdjust="spacing" textLength="98" x="54.5" y="545.0264">Settings updated</text><!--SRC=[PP6zRiCm38HtFmL7TyWBPEWY0uK7eqKDToTanX7gIAv-MlJjIz5HOgShxxlZYK8TdOSXaAyMzD5eiw2DCcXj97z2JO01XdQdDnYnPoTEeZRzJbNkSadMQ8p6sQpdmOxed3LiDtPIpaRlvfby1ZjLLPDtQO4FGp_mDfTb5KWdE3np5JZ2Etqb2X4M8SOhqMQzwLb_eIZcxAq5QiSdHbWyb0oLl2TsentXR4Bket7UXcKoRpr2OmAd_6xtaHrBsM7X2K5FCVAJmcDPTKRBXrgzOGFT-wu9Khcar8Lyx5q0I6BY5YKgtra0Vj5L1EtioKp9osSmAGopdP8pQZBVf8Ifyo8U5t7jfBR-6t9Vzlfv2oq5PRI_tx_ENF4F]--></g></svg>